<?xml version="1.0" encoding="utf-8"?>
<!-- Generator: Adobe Illustrator 16.0.0, SVG Export Plug-In . SVG Version: 6.00 Build 0)  -->
<!DOCTYPE svg PUBLIC "-//W3C//DTD SVG 1.1//EN" "http://www.w3.org/Graphics/SVG/1.1/DTD/svg11.dtd">
<svg version="1.1" id="Layer_1" xmlns="http://www.w3.org/2000/svg" xmlns:xlink="http://www.w3.org/1999/xlink" x="0px" y="0px"
	 width="385.363px" height="349.143px" viewBox="0 0 385.363 349.143" enable-background="new 0 0 385.363 349.143"
	 xml:space="preserve">
<path fill="#FFFFFF" d="M385.103,147.625c-0.629-2.2-2.619-1.814-3.611-0.159c-7.951,13.013-20.111,26.817-36.79,37.61
	c7.641-22.439,19.115-50.361,24.774-63.865c4.895-11.868,2.33-21.336-1.123-25.107c-2.153-1.625-3.685-1.053-5.461,2.017
	c-6.903,12.028-14.896,32.922-23.177,50.236c-9.832,20.363-19.854,35.57-28.628,35.604c-5.178-0.033-6.254-7.82-2.666-19.132
	c4.566-14.57,8.328-21.865,14.581-34.023c7.211-13.854,7.794-23.35,1.854-30.07c-1.745-2.108-3.997-2.151-5.591,0.45
	c-9.09,14.989-16.318,30.829-21.121,44.024l0,0c-5.127,9.325-4.957,9.15-19.918,15.369c-1.146,0.477-2.326,0.865-3.603,1.338
	c-5.022-8.075-8.979-16.306-8.522-25.687c0.267-5.493,1.959-10.918,3.047-16.364c0.354-1.771,0.822-3.518,1.299-5.525
	c-1.528-0.691-2.645-1.607-3.782-1.634c-4.028-0.097-8.072-0.012-12.097,0.243c-3.426,0.215-5.362,2.197-6.182,5.6
	c-0.978,4.062-1.711,8.339-3.568,12.005c-6.053,11.938-12.562,23.64-18.935,35.415c-0.354,0.659-1.045,1.137-2.243,2.398
	c-1.668-4.135-3.435-7.635-4.504-11.331c-2.585-8.932-1.552-17.733,1.611-26.377c0.618-1.689,0.927-3.494,1.427-5.438
	c-1.489-0.798-2.593-1.901-3.681-1.884c-4.74,0.076-9.491,0.34-14.208,0.828c-1.955,0.202-3.056,1.668-3.625,3.746
	c-1.2,4.364-2.451,8.761-4.195,12.928c-4.134,9.882-8.468,19.685-12.911,29.434c-5.406,11.868-10.981,23.66-16.556,35.45
	c-0.691,1.461-1.839,2.705-3.085,4.498c-2.515-4.901-1.175-9.102-0.292-13.051c2.465-11.007,5.375-21.915,8.095-32.866
	c0.973-3.911-0.183-6.196-4.174-6.839c-2.185-0.351-4.563,0.502-7.188,0.856c0.079-1.307,0.396-3.02,0.243-4.688
	c-0.358-3.882-0.474-7.881-1.564-11.572c-1.11-3.76-4.326-5.826-8.366-5.6c-2.855,0.16-5.846,0.487-8.484,1.5
	c-8.714,3.343-15.295,9.579-21.422,16.419c-1.893,2.112-4.149,4.075-6.599,5.479c-9.096,5.209-18.336,10.166-27.538,15.189
	c-1.397,0.762-2.875,1.378-3.793,1.814c-8.356-6.839-16.332-13.259-24.188-19.821c-6.967-5.822-14.237-11.372-20.605-17.806
	c-14.138-14.276-16.242-30.22-6.608-48.155c5.271-9.815,12.954-17.604,21.484-24.59c15.614-12.788,33.011-22.707,51.328-30.97
	c21.763-9.812,44.356-16.227,68.599-14.405c9.038,0.678,17.749,2.597,25.281,8.046c5.068,3.669,7.348,8.759,7.656,14.973
	c0.515,10.208-3.053,19.164-9.09,26.917c-22.507,28.902-52.648,41.527-88.832,40.009c-8.361-0.352-16.054-3.788-22.088-10.081
	c-0.653-0.682-1.549-1.132-2.332-1.688c-0.337,0.184-0.675,0.367-1.013,0.551c0.434,1.792,0.451,3.852,1.394,5.317
	c1.678,2.608,3.655,5.151,5.967,7.206c8.157,7.239,18.151,9.64,28.723,10.11c10.165,0.454,20.204-0.605,30.159-2.733
	c22.873-4.891,42.845-14.817,57.969-33.188c10.812-13.133,17.969-27.716,17.338-45.246c-0.328-9.073-3.299-17.101-9.785-23.616
	c-9.924-9.97-22.562-13.874-35.986-16.092C174.228,0.945,170.23,1,166.243,0c-3.032,0-6.062,0-9.092,0
	c-1.454,0-2.896,0.583-4.364,0.799c-7.465,1.1-15.105,1.42-22.375,3.271c-31.397,7.996-60.109,21.846-86.23,40.973
	C31.133,54.599,19.508,65.684,10.69,79.387c-2.695,4.188-4.947,8.694-7.032,13.229c-6.018,13.09-4.417,25.55,3.376,37.477
	c6.47,9.9,14.869,17.958,24.196,24.998c11.435,8.629,23.22,16.793,34.822,25.202c1.344,0.975,2.48,2.232,3.827,3.465
	c-0.753,0.664-1.055,1.032-1.443,1.255c-1.312,0.755-2.639,1.487-3.987,2.176c-11.237,5.735-22.044,12.179-31.847,20.146
	c-7.81,6.347-15.159,13.15-18.727,23.02c-3.313,9.162-3.753,18.199,1.021,27.016c2.409,4.449,5.642,8.3,10.972,8.88
	c5.984,0.648,12.203,1.653,18.039,0.73c33.401-5.28,54.192-36.665,48.155-69.702c-0.722-3.945-2.096-7.772-3.222-11.854
	c6.717-3.986,13.179-8.124,20.365-11.087c0.05,1.338-0.196,2.323-0.442,3.308c-2.579,10.301-4.837,20.642-3.03,31.354
	c1.29,7.646,3.461,14.983,8.269,21.266c3.166,4.136,7.37,5.377,12.388,4.24c3.955-0.896,6.673-3.497,8.405-6.857
	c3.838-7.441,7.336-15.061,10.978-22.604c0.519-1.075,1.07-2.136,1.607-3.202c0.292,0.092,0.586,0.185,0.878,0.275
	c-0.115,1.094-0.279,2.184-0.338,3.278c-0.32,6.04-0.94,12.108,1.138,17.988c2.485,7.031,8.323,8.81,13.856,3.8
	c3.053-2.764,5.759-6.149,7.835-9.717c11.445-19.654,21.309-40.097,29.716-61.235c0.508-1.274,1.247-2.459,1.878-3.685
	c0.315,0.051,0.632,0.102,0.946,0.151c1.595,11.063,5.807,21.209,10.861,30.896c-0.985,1.422-1.648,2.523-2.449,3.512
	c-6.303,7.786-12.645,15.542-18.944,23.328c-2.264,2.799-4.712,5.521-5.139,9.437c0.854,3.205,3.035,4.643,6.347,4.818
	c11.118,0.596,20.967-2.944,29.534-9.719c7.735-6.114,10.909-14.36,8.954-24.195c-0.835-4.194-2.131-8.301-3.174-12.273
	c7.156-12.171,14.3-24.323,21.426-36.443c3.29,9.646,6.521,19.126,9.888,28.99c0.12-0.197-0.013,0.137-0.243,0.377
	c-0.726,0.757-1.467,1.498-2.236,2.207c-6.045,5.578-11.293,11.764-14.799,19.289c-1.896,4.075-2.987,8.307-2.694,12.848
	c0.332,5.106,4.391,8.57,9.298,7.438c10.623-2.453,19.837-7.431,26.65-16.167c3.981-5.106,5.75-10.857,4.174-17.364
	c-0.758-3.124-1.465-6.261-2.167-9.276c0.524-0.419,0.769-0.694,1.071-0.837c0.738-0.343,1.488-0.676,2.265-0.921
	c4.866-1.539,8.063-2.727,10.507-3.87c-2.445,13.688,0.438,26.874,15.016,26.913c8.994-0.049,17.021-6.545,23.373-14.256
	c-2.024,5.563-3.812,11.331-5.632,16.652c-21.427,10.499-39.347,25.439-44.431,46.099c-3.409,13.549,1.689,21.012,6.701,27.358
	c4.752,5.916,8.998,5.572,13.119,3.668c17.978-8.647,30.946-45.914,41.055-76.876c17.938-9.096,32.9-18.85,40.503-33.41
	C385.455,154.794,385.712,149.6,385.103,147.625z M80.359,206.781c-1.593,16.541-9.712,29.073-23.98,37.523
	c-4.953,2.936-10.341,4.855-16.248,4.148c-5.049-0.606-7.667-3.487-7.749-8.615c-0.146-9.129,3.804-16.676,9.829-23.15
	c8.476-9.109,18.806-15.868,29.334-22.321c1.963-1.203,3.982-2.316,6.576-3.818C80.073,196.211,80.871,201.471,80.359,206.781z
	 M152.181,154.036c-2.227,12.192-6.757,23.668-11.239,35.143c-2.326,5.953-4.827,11.843-7.424,17.688
	c-0.887,1.992-2.147,3.88-3.526,5.583c-2.204,2.722-4.704,2.474-5.75-0.827c-1.285-4.057-1.866-8.334-2.751-12.517
	c0.815-15.771,6.196-29.651,15.552-42.058c2.542-3.372,5.764-6.108,9.885-7.484C150.795,148.271,152.911,150.046,152.181,154.036z
	 M213.918,206.298c-3.57,3.878-7.229,7.975-12.9,8.561c-0.228-0.343-0.451-0.685-0.676-1.025
	c5.893-6.884,11.784-13.768,17.778-20.77C219.564,196.66,218.139,201.716,213.918,206.298z M265.109,192.73
	c-2.728,5.381-7.092,8.862-13.148,10.108c-1.814-6.359,6.145-21.014,13.887-25.697C268.389,182.566,267.621,187.772,265.109,192.73z
	 M291.307,259.568c-4.474-5.263,3.118-36.693,30.825-55.802C310.92,237.742,294.555,263.584,291.307,259.568z"/>
<g>
	<path fill="#FFFFFF" d="M8.101,277.943h38.802v11.001H22.102v17.201h23.601v11.001H22.102v30.604H8.101V277.943z"/>
	<path fill="#FFFFFF" d="M111.337,277.943h14.001v58.807h27.102v11h-41.103V277.943z"/>
	<path fill="#FFFFFF" d="M214.573,277.943h41.202v11.001h-27.2v17.201h24.899v11.001h-24.899v19.604h27.399v11h-41.401V277.943z"/>
	<path fill="#FFFFFF" d="M339.212,311.445l-20.801-33.502h16.199l14.602,24.902l14.9-24.902h15.002l-21.002,33.502l22.9,36.305
		h-16.502l-16.102-27.201l-16.301,27.201h-15.801L339.212,311.445z"/>
</g>
</svg>
